<?xml version="1.0" standalone="no"?>
<svg xmlns:xlink="http://www.w3.org/1999/xlink" id="wave" style="transform:rotate(0deg); transition: 0.3s" viewBox="0 0 1440 490" version="1.1" xmlns="http://www.w3.org/2000/svg"><defs><linearGradient id="sw-gradient-0" x1="0" x2="0" y1="1" y2="0"><stop stop-color="rgba(27.691, 26.1, 25.588, 1)" offset="0%"/><stop stop-color="rgba(83.847, 117.262, 162.022, 1)" offset="100%"/></linearGradient></defs><path style="transform:translate(0, 0px); opacity:1" fill="url(#sw-gradient-0)" d="M0,147L80,138.8C160,131,320,114,480,106.2C640,98,800,98,960,81.7C1120,65,1280,33,1440,73.5C1600,114,1760,229,1920,253.2C2080,278,2240,212,2400,204.2C2560,196,2720,245,2880,245C3040,245,3200,196,3360,220.5C3520,245,3680,343,3840,351.2C4000,359,4160,278,4320,212.3C4480,147,4640,98,4800,81.7C4960,65,5120,82,5280,138.8C5440,196,5600,294,5760,285.8C5920,278,6080,163,6240,114.3C6400,65,6560,82,6720,89.8C6880,98,7040,98,7200,122.5C7360,147,7520,196,7680,253.2C7840,310,8000,376,8160,334.8C8320,294,8480,147,8640,73.5C8800,0,8960,0,9120,24.5C9280,49,9440,98,9600,106.2C9760,114,9920,82,10080,81.7C10240,82,10400,114,10560,130.7C10720,147,10880,147,11040,187.8C11200,229,11360,310,11440,351.2L11520,392L11520,490L11440,490C11360,490,11200,490,11040,490C10880,490,10720,490,10560,490C10400,490,10240,490,10080,490C9920,490,9760,490,9600,490C9440,490,9280,490,9120,490C8960,490,8800,490,8640,490C8480,490,8320,490,8160,490C8000,490,7840,490,7680,490C7520,490,7360,490,7200,490C7040,490,6880,490,6720,490C6560,490,6400,490,6240,490C6080,490,5920,490,5760,490C5600,490,5440,490,5280,490C5120,490,4960,490,4800,490C4640,490,4480,490,4320,490C4160,490,4000,490,3840,490C3680,490,3520,490,3360,490C3200,490,3040,490,2880,490C2720,490,2560,490,2400,490C2240,490,2080,490,1920,490C1760,490,1600,490,1440,490C1280,490,1120,490,960,490C800,490,640,490,480,490C320,490,160,490,80,490L0,490Z"/></svg>