<?xml version="1.0" standalone="no"?>
<svg xmlns:xlink="http://www.w3.org/1999/xlink" id="wave" style="transform:rotate(0deg); transition: 0.3s" viewBox="0 0 1440 490" version="1.1" xmlns="http://www.w3.org/2000/svg"><defs><linearGradient id="sw-gradient-0" x1="0" x2="0" y1="1" y2="0"><stop stop-color="rgba(243, 106, 62, 1)" offset="0%"/><stop stop-color="rgba(255, 179, 11, 1)" offset="100%"/></linearGradient></defs><path style="transform:translate(0, 0px); opacity:1" fill="url(#sw-gradient-0)" d="M0,343L48,294C96,245,192,147,288,155.2C384,163,480,278,576,334.8C672,392,768,392,864,343C960,294,1056,196,1152,138.8C1248,82,1344,65,1440,114.3C1536,163,1632,278,1728,302.2C1824,327,1920,261,2016,212.3C2112,163,2208,131,2304,163.3C2400,196,2496,294,2592,343C2688,392,2784,392,2880,367.5C2976,343,3072,294,3168,261.3C3264,229,3360,212,3456,220.5C3552,229,3648,261,3744,236.8C3840,212,3936,131,4032,98C4128,65,4224,82,4320,130.7C4416,180,4512,261,4608,253.2C4704,245,4800,147,4896,138.8C4992,131,5088,212,5184,204.2C5280,196,5376,98,5472,57.2C5568,16,5664,33,5760,89.8C5856,147,5952,245,6048,277.7C6144,310,6240,278,6336,220.5C6432,163,6528,82,6624,57.2C6720,33,6816,65,6864,81.7L6912,98L6912,490L6864,490C6816,490,6720,490,6624,490C6528,490,6432,490,6336,490C6240,490,6144,490,6048,490C5952,490,5856,490,5760,490C5664,490,5568,490,5472,490C5376,490,5280,490,5184,490C5088,490,4992,490,4896,490C4800,490,4704,490,4608,490C4512,490,4416,490,4320,490C4224,490,4128,490,4032,490C3936,490,3840,490,3744,490C3648,490,3552,490,3456,490C3360,490,3264,490,3168,490C3072,490,2976,490,2880,490C2784,490,2688,490,2592,490C2496,490,2400,490,2304,490C2208,490,2112,490,2016,490C1920,490,1824,490,1728,490C1632,490,1536,490,1440,490C1344,490,1248,490,1152,490C1056,490,960,490,864,490C768,490,672,490,576,490C480,490,384,490,288,490C192,490,96,490,48,490L0,490Z"/></svg>