<?xml version="1.0" standalone="no"?>
<svg xmlns:xlink="http://www.w3.org/1999/xlink" id="wave" style="transform:rotate(0deg); transition: 0.3s" viewBox="0 0 1440 490" version="1.1" xmlns="http://www.w3.org/2000/svg"><defs><linearGradient id="sw-gradient-0" x1="0" x2="0" y1="1" y2="0"><stop stop-color="rgba(243, 106, 62, 1)" offset="0%"/><stop stop-color="rgba(255, 179, 11, 1)" offset="100%"/></linearGradient></defs><path style="transform:translate(0, 0px); opacity:1" fill="url(#sw-gradient-0)" d="M0,147L120,122.5C240,98,480,49,720,32.7C960,16,1200,33,1440,49C1680,65,1920,82,2160,73.5C2400,65,2640,33,2880,65.3C3120,98,3360,196,3600,245C3840,294,4080,294,4320,302.2C4560,310,4800,327,5040,277.7C5280,229,5520,114,5760,122.5C6000,131,6240,261,6480,326.7C6720,392,6960,392,7200,343C7440,294,7680,196,7920,147C8160,98,8400,98,8640,89.8C8880,82,9120,65,9360,49C9600,33,9840,16,10080,81.7C10320,147,10560,294,10800,326.7C11040,359,11280,278,11520,277.7C11760,278,12000,359,12240,383.8C12480,408,12720,376,12960,334.8C13200,294,13440,245,13680,253.2C13920,261,14160,327,14400,334.8C14640,343,14880,294,15120,261.3C15360,229,15600,212,15840,196C16080,180,16320,163,16560,179.7C16800,196,17040,245,17160,269.5L17280,294L17280,490L17160,490C17040,490,16800,490,16560,490C16320,490,16080,490,15840,490C15600,490,15360,490,15120,490C14880,490,14640,490,14400,490C14160,490,13920,490,13680,490C13440,490,13200,490,12960,490C12720,490,12480,490,12240,490C12000,490,11760,490,11520,490C11280,490,11040,490,10800,490C10560,490,10320,490,10080,490C9840,490,9600,490,9360,490C9120,490,8880,490,8640,490C8400,490,8160,490,7920,490C7680,490,7440,490,7200,490C6960,490,6720,490,6480,490C6240,490,6000,490,5760,490C5520,490,5280,490,5040,490C4800,490,4560,490,4320,490C4080,490,3840,490,3600,490C3360,490,3120,490,2880,490C2640,490,2400,490,2160,490C1920,490,1680,490,1440,490C1200,490,960,490,720,490C480,490,240,490,120,490L0,490Z"/></svg>